<svg width="72" height="72" viewBox="0 0 72 72" fill="none" xmlns="http://www.w3.org/2000/svg">
<rect x="1" y="1" width="70" height="70" rx="3" stroke="white" stroke-width="2"/>
<path d="M52.9983 46.2857C52.7327 46.2857 52.4779 46.1852 52.29 46.0063C52.1022 45.8274 51.9967 45.5847 51.9967 45.3316C51.9967 45.0786 52.1022 44.8359 52.29 44.657C52.4779 44.4781 52.7327 44.3776 52.9983 44.3776C54.0271 44.3823 55.032 44.0831 55.8748 43.5212C56.7176 42.9593 57.3568 42.1623 57.7043 41.2401C58.0518 40.3178 58.0905 39.3156 57.8151 38.3715C57.5397 37.4274 56.9638 36.5878 56.1666 35.9684C55.9856 35.8257 55.8631 35.6269 55.8204 35.4068C55.7777 35.1867 55.8177 34.9593 55.9332 34.7644C56.6221 33.6336 56.9888 32.3509 56.997 31.0435C56.9949 29.0253 56.1527 27.0901 54.6551 25.6622C53.1575 24.2344 51.1267 23.4303 49.0077 23.4263C48.9886 23.4263 48.9696 23.4263 48.9496 23.4329C48.8624 23.4464 48.7744 23.455 48.6861 23.4587C48.4535 23.4677 48.2248 23.3991 48.0394 23.2649C47.854 23.1306 47.7236 22.9391 47.6705 22.7231C47.055 20.2151 45.567 17.979 43.4484 16.3784C41.3298 14.7777 38.7052 13.9066 36.001 13.9066C33.2968 13.9066 30.6722 14.7777 28.5536 16.3784C26.435 17.979 24.947 20.2151 24.3316 22.7231C24.2784 22.9391 24.1479 23.1306 23.9626 23.2649C23.7772 23.3991 23.5485 23.4677 23.3159 23.4587C23.2276 23.455 23.1396 23.4464 23.0524 23.4329C23.0324 23.4329 23.0134 23.4272 22.9943 23.4263C20.8753 23.4303 18.8445 24.2344 17.3469 25.6622C15.8493 27.0901 15.0071 29.0253 15.005 31.0435C15.0132 32.3509 15.3799 33.6336 16.0688 34.7644C16.1843 34.9593 16.2243 35.1867 16.1816 35.4068C16.1389 35.6269 16.0164 35.8257 15.8354 35.9684C15.0384 36.5877 14.4625 37.4271 14.1871 38.371C13.9116 39.3149 13.9502 40.317 14.2974 41.2392C14.6446 42.1613 15.2835 42.9583 16.1259 43.5204C16.9684 44.0824 17.9731 44.3819 19.0017 44.3776C19.2673 44.3776 19.5221 44.4781 19.71 44.657C19.8978 44.8359 20.0033 45.0786 20.0033 45.3316C20.0033 45.5847 19.8978 45.8274 19.71 46.0063C19.5221 46.1852 19.2673 46.2857 19.0017 46.2857C17.1455 46.2832 15.3662 45.5798 14.0537 44.3296C12.7412 43.0795 12.0026 41.3847 12 39.6168C12.0033 37.904 12.7047 36.2594 13.9563 35.0296C13.3296 33.7861 13.0028 32.4248 12.9997 31.0454C13.0035 28.5878 14.003 26.2263 15.7897 24.4532C17.5765 22.6801 20.0127 21.6321 22.5906 21.5277C23.4496 18.7754 25.219 16.3611 27.6353 14.6443C30.0516 12.9275 32.9855 12 36 12C39.0145 12 41.9484 12.9275 44.3647 14.6443C46.781 16.3611 48.5504 18.7754 49.4093 21.5277C51.9873 21.6321 54.4235 22.6801 56.2103 24.4532C57.997 26.2263 58.9965 28.5878 59.0003 31.0454C58.9972 32.4248 58.6704 33.7861 58.0437 35.0296C59.2953 36.2594 59.9967 37.904 60 39.6168C59.9973 41.3847 59.2588 43.0795 57.9463 44.3296C56.6338 45.5798 54.8545 46.2832 52.9983 46.2857Z" fill="white"/>
<rect x="45.168" y="34.0011" width="2" height="24" rx="1" transform="rotate(10 45.168 34.0011)" fill="white"/>
<rect x="25" y="34.3484" width="2" height="24" rx="1" transform="rotate(-10 25 34.3484)" fill="white"/>
<rect x="35" y="34" width="2" height="24" rx="1" fill="white"/>
</svg>
